<?xml version="1.0" standalone="no"?>
<!DOCTYPE svg PUBLIC "-//W3C//DTD SVG 20010904//EN"
 "http://www.w3.org/TR/2001/REC-SVG-20010904/DTD/svg10.dtd">
<svg version="1.0" xmlns="http://www.w3.org/2000/svg"
 width="1024.000000pt" height="1024.000000pt" viewBox="0 0 1024.000000 1024.000000"
 preserveAspectRatio="xMidYMid meet">
<metadata>
Created by potrace 1.14, written by Peter Selinger 2001-2017
</metadata>
<g transform="translate(0.000000,1024.000000) scale(0.100000,-0.100000)"
fill="#000000" stroke="none">
<path d="M2084 7985 c-38 -7 -96 -20 -127 -29 -299 -87 -557 -354 -642 -662
-20 -75 -22 -89 -31 -204 -3 -52 -7 -96 -9 -98 -1 -1 -42 7 -91 19 -92 23
-297 32 -374 16 -19 -4 -48 -9 -64 -12 -104 -20 -261 -92 -356 -164 -58 -44
-144 -128 -193 -190 -62 -78 -139 -239 -168 -351 -6 -25 -14 -54 -17 -65 -10
-33 -12 -2165 -2 -2220 24 -133 23 -129 68 -235 128 -305 415 -530 737 -579
99 -15 290 -6 379 18 44 12 80 20 82 19 1 -2 4 -46 7 -98 15 -245 110 -456
286 -630 115 -114 250 -195 396 -239 104 -31 177 -39 310 -36 175 4 309 44
462 136 79 49 93 60 179 145 134 131 228 308 270 509 11 50 13 201 14 958 l0
807 1920 0 1920 0 1 -822 c0 -850 1 -889 20 -973 88 -393 405 -694 794 -754
98 -15 289 -6 378 18 118 31 263 101 348 168 37 29 172 167 194 199 62 89 133
236 150 309 2 11 9 38 15 60 5 22 13 85 16 140 4 55 7 101 9 103 1 1 37 -7 81
-19 117 -31 384 -31 465 -1 13 5 29 10 34 11 25 3 85 26 147 57 285 139 489
413 537 719 3 22 6 526 6 1120 0 867 -3 1091 -13 1135 -50 203 -133 354 -271
490 -116 115 -192 163 -341 218 -131 48 -183 56 -330 56 -104 -1 -156 -6 -224
-22 -49 -13 -90 -21 -91 -20 -2 2 -6 46 -9 98 -4 53 -8 105 -10 115 -24 123
-80 259 -151 370 -79 123 -251 272 -385 333 -301 139 -674 111 -943 -70 -78
-52 -210 -185 -262 -263 -52 -79 -116 -215 -129 -277 -3 -13 -10 -43 -16 -67
-18 -72 -19 -118 -19 -973 l-1 -818 -1920 0 -1920 0 -1 823 c-1 452 -2 838 -4
857 -4 53 -14 121 -20 129 -2 4 -7 23 -10 42 -3 19 -22 72 -42 119 -105 249
-313 445 -563 534 -137 48 -336 66 -476 41z m289 -655 c60 -30 122 -92 156
-155 l26 -50 3 -1970 c2 -1483 0 -1983 -9 -2025 -44 -205 -293 -314 -469 -204
-58 36 -101 83 -129 143 l-26 56 0 2000 0 2000 27 50 c42 80 102 134 182 166
61 24 180 18 239 -11z m5721 15 c73 -20 156 -93 197 -172 l24 -48 3 -1981 c2
-1791 1 -1985 -14 -2035 -24 -81 -82 -151 -159 -192 -54 -28 -58 -29 -150 -30
-61 0 -90 4 -125 21 -82 38 -156 127 -178 212 -9 33 -11 560 -9 2025 l2 1980
27 50 c45 86 129 156 206 174 43 10 134 8 176 -4z m-7001 -975 c60 -30 122
-92 156 -155 l26 -50 3 -1010 c3 -751 0 -1024 -9 -1065 -52 -241 -358 -329
-533 -154 -38 38 -69 90 -84 139 -9 30 -12 298 -12 1046 0 902 2 1011 16 1055
31 92 120 183 206 209 65 20 175 13 231 -15z m8321 -1 c59 -29 126 -96 157
-157 l24 -47 0 -1040 0 -1040 -26 -55 c-41 -86 -126 -159 -208 -178 -63 -15
-156 -6 -211 20 -57 26 -129 91 -149 134 -6 13 -17 36 -23 51 -10 20 -13 254
-13 1062 l0 1036 26 55 c40 84 121 156 200 178 58 16 173 7 223 -19z"/>
</g>
</svg>
